<svg xmlns="http://www.w3.org/2000/svg" width="70" viewBox="0 0 150.003 150.003">
<defs>
<style>
  .cls-1{fill:#2c50ee !important }.cls-2{fill:#f5b945 !important}
</style>
</defs>
<g id="Group_2143" data-name="Group 2143" transform="translate(-1221.292 -943.625)">
<path id="Path_2774" d="M1241.735 1007.927l9.092-9.092.311-.311 1.509-1.509a2.373 2.373 0 0 0 0-3.358l-8.394-8.394a2.371 2.371 0 0 0-3.356 0l-1.511 1.511-.308.309-9.095 9.092a29.676 29.676 0 0 0 41.969 41.969l9.092-9.092.311-.311 1.508-1.509a2.373 2.373 0 0 0 0-3.358l-8.393-8.394a2.371 2.371 0 0 0-3.356 0l-1.511 1.511-.309.308-9.094 9.092a13.057 13.057 0 0 1-18.465-18.465z" class="cls-1" data-name="Path 2774" transform="translate(0 46.793)" />
<path id="Path_2775" d="M1304.058 982.534l-9.092 9.092-.309.311-1.51 1.509a2.377 2.377 0 0 0 0 3.358l8.4 8.394a2.371 2.371 0 0 0 3.356 0l1.511-1.511.309-.309 9.092-9.092a29.676 29.676 0 0 0-41.969-41.969l-9.092 9.092-.308.311-1.511 1.509a2.377 2.377 0 0 0 0 3.358l8.4 8.394a2.371 2.371 0 0 0 3.356 0l1.511-1.511.308-.309 9.093-9.092a13.057 13.057 0 0 1 18.465 18.465z" class="cls-1" data-name="Path 2775" transform="translate(46.794)" />
<path id="Path_2776" d="M1259.686 968.027l-.909.911-.911.909-18.185 18.187-.911.909-.909.911a2.37 2.37 0 0 0 0 3.356l8.394 8.4a2.375 2.375 0 0 0 3.356 0l.911-.911.911-.911 18.185-18.185.908-.909.911-.911a2.371 2.371 0 0 0 0-3.356l-8.394-8.4a2.377 2.377 0 0 0-3.357 0z" class="cls-2" data-name="Path 2776" transform="translate(18.143 27.096)" />
<path id="Path_2777" d="M1271.437 996.12l-.911-.911-.908-.909-18.185-18.185-.911-.911-.911-.911a2.375 2.375 0 0 0-3.356 0l-8.394 8.4a2.37 2.37 0 0 0 0 3.356l.909.911.911.909 18.185 18.187.911.909.909.911a2.377 2.377 0 0 0 3.358 0l8.394-8.4a2.37 2.37 0 0 0-.001-3.356z" class="cls-2" data-name="Path 2777" transform="translate(18.143 34.258)" />
<g id="Group_2142" data-name="Group 2142" transform="translate(1302.313 994.429)">
  <path id="Path_2778" d="M1271.547 1007.871l.911-.911.911-.909 18.185-18.187.908-.909.911-.911a2.375 2.375 0 0 0 0-3.356l-8.4-8.4a2.375 2.375 0 0 0-3.356 0l-.908.911-.911.911-18.181 18.19-.911.909-.909.911a2.371 2.371 0 0 0 0 3.356l8.394 8.4a2.375 2.375 0 0 0 3.356-.005z" class="cls-2" data-name="Path 2778" transform="translate(-1259.101 -960.171)" />
  <path id="Path_2779" d="M1259.8 979.779l.909.911.911.909 18.185 18.185.911.911.908.911a2.374 2.374 0 0 0 3.356 0l8.4-8.4a2.375 2.375 0 0 0 0-3.356l-.911-.911-.908-.909-18.185-18.187-.911-.909-.911-.911a2.375 2.375 0 0 0-3.356 0l-8.394 8.4a2.371 2.371 0 0 0-.004 3.356z" class="cls-2" data-name="Path 2779" transform="translate(-1259.101 -967.333)" />
</g>
<path id="Path_2780" d="M1297.734 995.859l12.589 12.592a13.057 13.057 0 0 1-18.465 18.466l-9.478-9.478-3.111-3.111-7.307-7.307-1.382-1.382-1.382-1.382a2.384 2.384 0 0 0-3.36 0l-8.391 8.392a2.384 2.384 0 0 0 0 3.36l1.382 1.38 1.382 1.382 7.307 7.307 3.113 3.114 9.476 9.478a29.676 29.676 0 0 0 41.968-41.969l-12.589-12.589z" class="cls-1" data-name="Path 2780" transform="translate(40.528 46.269)" />
<path id="Path_2781" d="M1254.327 995.126l-12.592-12.592a13.057 13.057 0 1 1 18.465-18.465l9.478 9.478 3.114 3.112 7.307 7.307 1.382 1.382 1.382 1.382a2.381 2.381 0 0 0 3.358 0l8.391-8.392a2.38 2.38 0 0 0 0-3.36l-1.38-1.38-1.382-1.382-7.307-7.307-3.114-3.114-9.478-9.478a29.676 29.676 0 0 0-41.969 41.969l12.592 12.59z" class="cls-1" data-name="Path 2781" />
</g>
</svg>