<svg preserveAspectRatio="xMidYMid meet" xmlns="http://www.w3.org/2000/svg" width="100%" viewBox="0 0 990.003 499.995">
  <defs>
    <style>
      .cls-1 {
      fill: #5e9cea;
      }

      .cls-2 {
      fill: #4a88da;
      }

      .cls-3 {
      fill: #f5b945;
      }

      .cls-4 {
      fill: #3b978a;
      }

      .cls-5 {
      fill: #348c7d;
      }

      .cls-6 {
      fill: #307f70;
      }

      .cls-7, .cls-8 {
      fill: #61ddbc;
      }

      .cls-10, .cls-8 {
      stroke: #fff;
      stroke-miterlimit: 10;
      }

      .cls-11, .cls-9 {
      fill: #fff;
      font-family: Rubik-Medium, Rubik;
      font-weight: 500;
      }

      .cls-9 {
      font-size: 8px;
      }

      .cls-10 {
      fill: #eee2df;
      }

      .cls-11 {
      font-size: 10px;
      }

      .cls-12 {
      fill: #73b0f4;
      }
    </style>
  </defs>
  <g id="Group_2244" data-name="Group 2244" transform="translate(-189 -370)">
    <path id="Path_2782" data-name="Path 2782" class="cls-1" d="M288.685,274.564c-34.041,5.968-55.346,24.435-89.387,30.4-30.757,5.4-65.439,13.306-81.137,40.483-15.459,26.612-2.483,65.482,25.711,77.336,5.767,2.419,13.056,5,14.1,11.29,1.6,9.758-13.777,15.483-13.056,25.322.561,7.1,9.131,10.4,16.179,10.645s15.058-.645,20.424,3.951c8.01,6.855,4.165,20.161-1.842,28.87s-13.857,17.983-12.094,28.467c2.323,13.467,18.823,18.628,32.359,19.515,21.706,1.532,43.732-.4,65.038,4.113S307.668,572.216,314.4,593.1c3.765,11.612,2.563,24.193,4.405,36.289s8.57,25,20.424,27.66c10.493,2.339,26.832-.645,27.713,10.161.32,4.113-2.643,8.145,2.323,12.177a13.085,13.085,0,0,0,11.133,2.419c38.366-8.79,82.819-23.789,115.819-1.371,8.41,5.726,15.539,13.709,24.91,17.58,9.612,3.952,20.585,3.306,30.276,7.016,15.058,5.806,24.91,21.451,40.368,26.209,24.509,7.5,46.7-15.242,69.363-27.338,43.252-23.064,97.4-7.742,143.933-23.306a12.159,12.159,0,0,0,4.726-2.742c8.41-7.661-1.121-19.435.481-29.6,2.563-16.37,29.075-16.612,35.643-31.773,2.723-6.209,1.282-13.387,2.964-19.919,4-15.725,22.667-21.451,38.046-26.37s33.08-16.612,29.956-32.58c31,6.129,53.744-27.66,81.7-42.5,16.82-8.871,37.805-11.774,49.659-26.773,16.26-20.483,5.126-52.418-14.738-69.353s-45.895-24.112-69.123-36.047c-9.852-5.08-19.944-11.854-23.789-22.338,12.655,1.129,25.871-9.758,24.91-22.5s-18.742-21.209-27.873-12.258c5.446-6.29,1.842-16.935-5.206-21.37-6.969-4.435-15.859-4.355-24.109-3.629C847.6,286.1,792.169,315.692,734.74,336.095c-6.728,2.419-14.017,4.677-20.905,2.581-7.209-2.177-12.175-8.629-18.182-13.064-10.412-7.742-23.948-9.516-36.764-10.967-16.74-2.016-33.961-1.21-51.1-1.048a33.711,33.711,0,0,1-33.48-27.741c-1.121-6.21-3.284-11.693-7.209-14.758-4.325-3.387-9.852-4.677-15.138-5.887q-49.259-11.25-98.6-22.419c-11.934-2.742-24.429-5.4-36.284-2.581-11.934,2.822-23.068,13.064-22.667,25.4.24,8.951,6.408,17.177,5.607,26.128-1.121,12.5-15.459,19.919-27.873,18.951-12.415-1.048-23.468-7.742-34.922-12.661C325.769,293.193,299.5,268.355,288.685,274.564Z" transform="translate(86.019 137.267)" />
    <path id="Path_2783" data-name="Path 2783" class="cls-2" d="M322.251,306.54c8.089-33.9-94.268,20.985-135.676,38.338-17.06,7.183-37.4,20.824-32.838,38.9,1.362,5.569,5.046,10.25,8.65,14.77q14.657,18.281,29.314,36.481c3.444,4.278,7.128,8.717,12.254,10.493,4.325,1.453,9.05.888,13.375,2.26,14.9,4.681,14.256,26.15,9.611,41.163s-8.65,35.109,4.645,43.423c4.886,3.067,10.812,3.39,16.5,4.036,50.858,5.569,97.872,38.984,120.218,85.393,7.368,15.255,18.5,35.19,34.68,30.59,4.165,11.138,20.183,7.668,31.556,4.6,26.59-7.183,55.023-.4,80.412,10.492,25.309,10.9,48.856,25.747,74.566,35.675,7.449,2.905,15.217,5.327,23.147,5,15.7-.645,28.673-11.622,41.728-20.339A162.265,162.265,0,0,1,736.246,661.1c16.259-.727,35.24-.081,45.572-12.753,4.725-5.73,6.648-13.317,11.133-19.29,7.369-9.847,21.144-14.447,25.709-25.908,2.082-5.246,1.922-11.3,4.405-16.465,5.446-11.057,20.1-12.429,31.877-15.981,23.066-7.022,39.565-26.716,57.506-42.939a237.6,237.6,0,0,1,88.181-50.445c10.091-3.148,21.7-6.618,26.19-16.3,6.488-13.963-6.167-28.895-17.78-38.984-13.3-11.622-26.831-23.406-42.849-30.832s-35.08-10.008-51.179-2.744c4.485-11.461,9.05-23.326,8.169-35.594-.8-12.268-8.73-24.94-20.824-27.038-8.81-1.533-17.62,2.825-26.591,2.663-11.774-.161-22.506-8.071-34.2-7.829-13.936.323-24.748,11.542-35.16,20.823-28.112,24.778-69.6,39.468-103.238,23.083-16.259-7.91-29.154-22.2-46.373-27.684-24.828-7.91-51.98,4.439-77.529-.646-3.364-.646-6.808-1.776-9.291-4.116-4.325-4.116-4.565-10.9-7.448-16.142-2.964-5.408-8.49-8.878-13.7-12.107-19.222-11.622-38.925-23.487-60.87-27.845-22.025-4.358-47.094.242-61.831,17.272-2.643,3.067-4.966,6.538-5.526,10.492-1.522,11.058,10.572,19.774,11.053,30.912.641,15.254-20.423,22.034-34.68,16.707s-25.469-17.272-40.046-21.55c-7.529-2.26-15.618-2.341-22.826-5.327C326.977,321.633,320.409,314.208,322.251,306.54Z" transform="translate(77.777 130.224)" />
    <path id="Path_2784" data-name="Path 2784" class="cls-3" d="M1011.726,467.634a11.333,11.333,0,0,1-3.124,7.833,10.617,10.617,0,0,1-13.615,0s-15.3-8.076-33.477,10.175a4,4,0,0,1-5.286.4c-2.8-2.1-6.968-3.634-6.968,4.845,0,0,0,10.5-8.81,3.23,0,0-3.2-2.423-11.212,4.845,0,0-10.411,10.5-8.009,17.766,0,0,3.2,5.653-4,5.653,0,0-12.814,16.151-28.832,14.536,0,0-6.407-5.653-12.013,4.846,0,0-4,16.151-18.42,23.419,0,0-22.425,9.691-35.239-8.076,0,0-7.208-8.076-13.615,2.423l-8.009,19.381s-2.4,9.691,3.2,13.729c0,0,12.814,5.653,8.81,16.151a58.094,58.094,0,0,1-15.217,10.5s-13.615,6.461-20.022,24.227c0,0-8.009,20.189-66.474,19.382,0,0-47.252.807-82.491,31.495,0,0-11.212,8.076-16.018-2.423,0,0,1.6-8.883-11.212-4.845a27.516,27.516,0,0,1-17.619,0L550.414,674.21A23.738,23.738,0,0,1,536,661.288s.8-3.23-10.412-4.038l-33.637-3.23s-7.688-1.292-13.935.727a9.53,9.53,0,0,0-2.082.888,45.637,45.637,0,0,1-18.42.808l-23.226-4.038a61.624,61.624,0,0,0-7.849-1.05h0c-2.8-.161-5.686,0-7.368,1.05,0,0-5.606,4.038-9.611-1.615,0,0-7.208-4.846-14.416-3.23,0,0-6.407,2.423-8.009-8.076,0,0-12.814-15.344-16.018-35.533,0,0-.8-8.076-5.606-9.691,0,0-3.2-3.23,0-4.845,0,0,6.407-6.461-10.412-4.845,0,0-8.81,6.461-25.628-16.151,0,0-5.606-10.337-20.743-15.344a55.775,55.775,0,0,0-20.9-2.423s-13.615,4.038-29.633-8.076c0,0-16.018-2.423-16.018-12.921,0,0-.8-8.883,9.611-15.344,0,0,8.009-5.653,2.4-12.113,0,0-4-6.461,3.2-12.113a9.408,9.408,0,0,0,2.4-6.864v-.081c-.16-2.665-1.6-5.815-5.606-9.206,0,0-8.81-1.615-8.009-21.8,0,0,0-12.921-8.81-13.729,0,0-7.208,8.883-9.611-4.038,0,0-1.6-6.461-11.212-1.615,0,0-13.615,5.653-15.217-15.344,0,0-1.6-10.5-9.611-12.921,0,0-12.814-3.23-8.81-18.574,0,0,2.4-7.268,9.611-8.076,0,0,4.885-.646,5.606-4.522a5.244,5.244,0,0,1,2.563-3.876c2.483-1.373,6.327-2.1,10.251,2.826,0,0,6.407,6.461,19.221,1.615,0,0,8.81-3.23,9.611-11.306,0,0-1.6-7.268,8.81-5.653l20.022-9.691s4.325-3.069,12.894-1.131a4.676,4.676,0,0,0,5.286-2.584c1.922-4.038,6.167-9.448,14.656-6.783,0,0,5.606,3.23,7.208-.808,0,0,0-8.883,7.208,0,0,0,3.2,4.845,5.606.808,0,0,5.606-2.423,4,3.23,0,0-2.4,6.461,16.819,6.461h7.208s7.208-.808,7.208,8.076v5.653s-.8,6.46,12.013,11.306c0,0,8.089,2.746,14.816,3.069a17.165,17.165,0,0,0,6.007-.646s19.221-4.038,32.035,5.653c0,0,6.407,7.268,14.416.808,0,0,4.805-6.46,7.208-2.423,0,0,3.2,2.423,11.212-9.691,0,0,5.606-8.076-1.6-13.729,0,0-8.009-5.653-4.805-25.035,0,0,.8-10.5,4.805-9.691,0,0,6.407.808,5.606-4.845,0,0-.8-5.653,4.805-4.845,0,0,8.009.808,8.81-8.883,0,0,1.6-10.5,7.208-2.423l48.854,21s8.81,3.23,16.018,5.653c0,0,9.611,0,8.009,6.46,0,0-1.6,5.653,1.6,10.5a16.827,16.827,0,0,1,2.4,10.5s1.6,13.729,28.031,19.382c0,0,21.624,3.23,33.637-8.076,0,0,4-2.423,5.606.808,0,0,4,1.615,5.606-2.423,0,0,4.805-5.653,12.814,2.423,0,0,11.212,4.845,17.62,0,0,0,12.013-4.038,14.416,6.461,0,0,3.2,9.691,16.819,8.076,0,0,8.009-1.615,8.009,6.461,0,0,7.208,24.227,51.257,24.227,0,0,34.438-2.423,56.062-21.8,0,0,7.208-4.845,12.814,0,0,0,11.212,2.423,10.411-8.076,0,0-.8-7.268,6.407-9.691l15.057-9.368a15.614,15.614,0,0,1,9.53-2.18,6.2,6.2,0,0,0,4.325-1.454s5.606-4.845,9.611,2.423c0,0,11.212,14.536,24.027,1.615,0,0,4.805-4.038,12.814.808,0,0,8.81-.808,5.606,8.076l-12.013,33.11s4.805,2.423-4,8.883c0,0-4.805,3.23,0,10.5,0,0,2.4,6.46-4.805,8.076,0,0-7.768,5.734,7.208,16.394a3.459,3.459,0,0,0,4.885-.888c1.922-2.988,5.446-6.784,9.531-4.2,0,0,7.208,2.423,9.611-2.423,0,0,4.325-5.572,11.292,2.826a3.41,3.41,0,0,0,5.606-.565c4.325-7.753,14.416-20.431,29.633-8.641l20.343,14.132a9.438,9.438,0,0,1,3.444,4.442,5.345,5.345,0,0,0,3.924,3.23,10.773,10.773,0,0,1,5.606,2.907l2.082,2.1A10.384,10.384,0,0,1,1011.726,467.634Z" transform="translate(72.031 126.009)" />
    <path id="Path_2785" data-name="Path 2785" class="cls-4" d="M1011.625,449.615a11.332,11.332,0,0,1-3.123,7.833,10.617,10.617,0,0,1-13.615,0s-15.3-8.076-33.477,10.175a4.01,4.01,0,0,1-5.286.4c-2.8-2.1-6.968-3.634-6.968,4.845,0,0,0,10.5-8.81,3.23,0,0-3.2-2.423-11.212,4.845,0,0-10.412,10.5-8.009,17.766,0,0,3.2,5.653-4,5.653,0,0-12.814,16.151-28.832,14.536,0,0-5.927-5.168-11.293,3.634l-.721,1.211s-4,16.151-18.421,23.419c0,0-22.425,9.691-35.239-8.076,0,0-7.208-8.076-13.615,2.423L800.992,560.9s-1.522,6.218.721,10.741a8.008,8.008,0,0,0,2.483,2.988s12.814,5.653,8.81,16.151a58.094,58.094,0,0,1-15.217,10.5s-13.615,6.461-20.022,24.227c0,0-8.009,20.189-66.474,19.382,0,0-47.252.807-82.491,31.495,0,0-11.213,8.076-16.018-2.423,0,0,1.6-8.883-11.213-4.845a27.518,27.518,0,0,1-17.62,0L550.314,656.19A23.737,23.737,0,0,1,535.9,643.269s.8-3.23-10.412-4.038L491.85,636s-7.689-1.292-13.935.727a9.52,9.52,0,0,0-2.082.888,45.641,45.641,0,0,1-18.42.807l-23.226-4.038a33.937,33.937,0,0,0-7.849-1.05h-.16v.081c-2.4-.161-5.606,0-7.288,1.05,0,0-5.526,4.038-9.531-1.615,0,0-7.208-4.845-14.416-3.23,0,0-6.407,2.423-8.009-8.076,0,0-12.814-15.344-16.018-35.533,0,0-.8-8.076-5.606-9.691,0,0-3.2-3.23,0-4.845,0,0,6.407-6.46-10.412-4.845,0,0-8.81,6.46-25.628-16.151,0,0-5.606-10.337-20.743-15.344a55.774,55.774,0,0,0-20.9-2.423s-13.615,4.038-29.633-8.076c0,0-16.018-2.423-16.018-12.921,0,0-.8-8.883,9.611-15.344,0,0,8.009-5.653,2.4-12.113,0,0-4-6.461,3.2-12.113a11.225,11.225,0,0,0,2.4-6.864h0c0-2.665-1.6-5.814-5.606-9.287,0,0-8.81-1.615-8.009-21.8,0,0,0-12.921-8.81-13.729,0,0-7.208,8.883-9.611-4.038,0,0-1.6-6.461-11.212-1.615,0,0-13.615,5.653-15.217-15.344,0,0-1.6-10.5-9.611-12.921,0,0-12.814-3.23-8.81-18.574,0,0,2.4-7.268,9.611-8.076,0,0,4.885-.646,5.606-4.522a5.244,5.244,0,0,1,2.563-3.876,7.527,7.527,0,0,1,4.565-.969c1.762.242,3.764,1.292,5.686,3.715,0,0,6.407,6.46,19.221,1.615,0,0,8.81-3.23,9.611-11.306,0,0-1.6-7.268,8.81-5.653l20.022-9.691s4.325-3.069,12.894-1.131a4.677,4.677,0,0,0,5.286-2.584c1.682-3.553,5.206-8.237,11.933-7.43a12.041,12.041,0,0,1,2.723.646s5.606,3.23,7.208-.808c0,0,0-8.883,7.208,0,0,0,3.2,4.845,5.606.808,0,0,5.606-2.584,4,3.069,0,0-2.4,6.3,16.819,6.3h7.208s7.208-.565,7.208,8.318v5.653s-.8,6.46,12.013,11.306c0,0,8.089,2.746,14.816,3.069a15.452,15.452,0,0,0,6.007-.646s19.221-4.038,32.035,5.653c0,0,6.407,7.268,14.416.807,0,0,4.805-6.46,7.208-2.423,0,0,3.2,2.423,11.212-9.691,0,0,5.606-8.076-1.6-13.729,0,0-8.009-5.653-4.805-25.034,0,0,.8-10.5,4.805-9.691,0,0,6.407.808,5.606-4.845,0,0-.8-5.653,4.805-4.845,0,0,8.009.808,8.81-8.883,0,0,1.6-10.5,7.208-2.423l48.854,21s8.81,3.23,16.018,5.653c0,0,9.611,0,8.009,6.46,0,0-1.6,5.653,1.6,10.5a16.827,16.827,0,0,1,2.4,10.5s1.6,13.729,28.031,19.382c0,0,21.624,3.23,33.637-8.076,0,0,4-2.423,5.606.808,0,0,4,1.615,5.606-2.423,0,0,4.805-5.653,12.814,2.423,0,0,11.213,4.845,17.62,0,0,0,12.013-4.038,14.416,6.46,0,0,3.2,9.691,16.819,8.076,0,0,8.009-1.615,8.009,6.46,0,0,7.208,24.227,51.257,24.227,0,0,34.438-2.423,56.062-21.8,0,0,7.208-4.845,12.814,0,0,0,11.212,2.423,10.412-8.076,0,0-.8-7.268,6.407-9.691l15.057-9.368a15.615,15.615,0,0,1,9.531-2.18,6.2,6.2,0,0,0,4.325-1.454s5.606-4.845,9.611,2.423c0,0,11.212,14.536,24.027,1.615,0,0,4.805-4.038,12.814.808,0,0,8.81-.808,5.606,8.076l-12.013,33.11s4.805,2.423-4,8.883c0,0-4.805,3.23,0,10.5,0,0,2.4,6.461-4.805,8.076,0,0-7.769,5.734,7.208,16.394a3.41,3.41,0,0,0,4.885-.969c1.922-2.988,5.446-6.784,9.531-4.2,0,0,7.208,2.423,9.611-2.423,0,0,4.325-5.572,11.292,2.826a3.41,3.41,0,0,0,5.606-.565c4.325-7.753,14.416-20.431,29.633-8.641l20.343,14.132a9.439,9.439,0,0,1,3.444,4.442,5.345,5.345,0,0,0,3.924,3.23,10.772,10.772,0,0,1,5.606,2.907l2.082,2.1A10.357,10.357,0,0,1,1011.625,449.615Z" transform="translate(72.051 129.602)" />
    <path id="Path_2786" data-name="Path 2786" class="cls-5" d="M877.622,530.615l-.721,1.2s-4.008,16.03-18.434,23.243c0,0-22.442,9.618-35.266-8.015,0,0-7.213-8.015-13.625,2.4l-8.015,19.236s-1.523,6.171.721,10.66a7.96,7.96,0,0,0,2.485,2.966s12.824,5.61,8.816,16.03a58.128,58.128,0,0,1-15.228,10.419s-13.625,6.412-20.037,24.045c0,0-8.015,20.037-66.524,19.236,0,0-47.288.8-82.554,31.258,0,0-11.221,8.015-16.03-2.4,0,0,1.6-8.816-11.221-4.809a27.752,27.752,0,0,1-17.633,0l-33.663-12.824a23.718,23.718,0,0,1-14.427-12.824s.8-3.206-10.419-4.008l-33.663-3.206s-7.694-1.282-13.946.721a9.569,9.569,0,0,0-2.084.882,46.041,46.041,0,0,1-18.434.8l-23.243-4.008a34.227,34.227,0,0,0-7.855-1.042h-.16v.08c-2.4-.16-5.61,0-7.294,1.042,0,0-5.53,4.008-9.538-1.6,0,0-7.213-4.809-14.427-3.206,0,0-6.412,2.4-8.015-8.015,0,0-12.824-15.228-16.03-35.266,0,0-.8-8.015-5.61-9.618,0,0-3.206-3.206,0-4.809,0,0,6.412-6.412-10.419-4.809,0,0-8.816,6.412-25.648-16.03,0,0-5.61-10.259-20.759-15.228a56.256,56.256,0,0,0-20.919-2.4s-13.625,4.007-29.655-8.015c0,0-16.03-2.4-16.03-12.824,0,0-.8-8.816,9.618-15.228,0,0,8.015-5.61,2.4-12.022,0,0-4.007-6.412,3.206-12.022a11.091,11.091,0,0,0,2.4-6.813h0c0-2.645-1.6-5.771-5.61-9.217,0,0-8.816-1.6-8.015-21.64,0,0,0-12.824-8.816-13.625,0,0-7.213,8.816-9.618-4.008,0,0-1.6-6.412-11.221-1.6,0,0-13.625,5.61-15.228-15.228,0,0-1.6-10.419-9.618-12.824,0,0-12.824-3.206-8.816-18.434,0,0,2.4-7.213,9.618-8.015,0,0,4.889-.641,5.61-4.488a5.2,5.2,0,0,1,2.565-3.847,7.586,7.586,0,0,1,4.568-.962,9.015,9.015,0,0,1,5.691,3.687s6.412,6.412,19.236,1.6c0,0,8.816-3.206,9.618-11.221,0,0-1.6-7.213,8.816-5.61l20.037-9.618s4.328-3.046,12.9-1.122a4.691,4.691,0,0,0,5.29-2.565c1.683-3.527,5.21-8.175,11.942-7.374-9.377,6.813-19.076,14.347-23,25.167-4.088,11.061,1.282,26.369,12.984,28.132,6.412.962,12.583-2.244,19-3.046s14.587,2.645,14.347,9.057c-.16,4.328-4.328,8.255-3.206,12.423,2.244,8.1,16.511,1.924,22.2,8.015,4.649,4.969-.321,13.465,2.4,19.717,4.248,9.858,19.476,3.687,26.209-4.729s16.431-19.156,25.888-14.026c8.656,4.729,6.893,18.675,14.186,25.247,2.885,2.645,6.973,3.767,10.82,4.248,14.587,1.763,28.854-4.168,43.521-5.21,14.587-1.042,32.3,6.091,33.9,20.678,1.523,13.706-11.942,24.606-13.866,38.231-2.324,16.03,15.95,31.178,31.338,25.888,6.492-2.244,11.862-7.213,18.434-9.217s15.789,1.122,15.95,8.015c.16,6.732-8.336,13.385-4.408,18.835a54.527,54.527,0,0,0,18.354-5.771c1.523,10.259,16.992,10.58,25.487,4.649,8.5-6.011,15.309-15.549,25.648-16.912,16.351-2.164,32.14,17.873,46.807,10.339,13.385-6.893,8.5-27.651,16.03-40.636,1.683-2.966,4.649-5.691,8.015-5.37,3.527.321,5.851,3.767,7.213,6.973,4.889,11.782,6.172,28.854,18.755,31.1,11.622,2.084,20.6-12.022,32.38-12.5,10.74-.4,19.877,10.82,30.457,8.977,15.148-2.645,15.95-27.411,30.3-32.861,16.19.08,15.629,28.453,30.457,34.785,6.492,2.725,13.946.321,20.839,1.6C864.077,520.837,870.329,526.929,877.622,530.615Z" transform="translate(72.031 122.703)" />
    <path id="Path_2787" data-name="Path 2787" class="cls-6" d="M813.583,606.23a58.128,58.128,0,0,1-15.228,10.419s-13.625,6.412-20.037,24.045c0,0-8.015,20.037-66.524,19.236,0,0-47.288.8-82.554,31.258,0,0-11.221,8.015-16.03-2.4,0,0,1.6-8.816-11.221-4.809a27.754,27.754,0,0,1-17.633,0l-33.663-12.824a23.718,23.718,0,0,1-14.427-12.824s.8-3.206-10.419-4.007l-33.663-3.206s-7.694-1.282-13.946.721a9.578,9.578,0,0,0-2.084.882,46.04,46.04,0,0,1-18.434.8l-23.243-4.007a34.225,34.225,0,0,0-7.855-1.042h-.16v.08c-2.4-.16-5.61,0-7.294,1.042,0,0-5.53,4.007-9.538-1.6,0,0-7.213-4.809-14.427-3.206,0,0-6.412,2.4-8.015-8.015,0,0-12.824-15.228-16.03-35.266,0,0-.8-8.015-5.61-9.618,0,0-3.206-3.206,0-4.809,0,0,6.412-6.412-10.419-4.809,0,0-8.816,6.412-25.648-16.03,0,0-5.53-10.259-20.759-15.228a56.252,56.252,0,0,0-20.919-2.4s-13.625,4.007-29.655-8.015c0,0-16.03-2.4-16.03-12.824,0,0-.8-8.816,9.618-15.228,0,0,8.015-5.61,2.4-12.022,0,0-4.007-6.412,3.206-12.022a11.09,11.09,0,0,0,2.4-6.813h0c0-2.645-1.6-5.771-5.61-9.217,0,0-8.816-1.6-8.015-21.64,0,0,0-12.824-8.816-13.625,0,0-7.213,8.816-9.618-4.008,0,0-1.6-6.412-11.221-1.6,0,0-13.625,5.61-15.228-15.228,0,0-1.6-10.419-9.618-12.824,0,0-12.824-3.206-8.816-18.434,0,0,2.4-7.213,9.618-8.015,0,0,4.889-.641,5.61-4.488a5.2,5.2,0,0,1,2.565-3.847,7.586,7.586,0,0,1,4.568-.962l1.763,4.969c-8.816,7.694.321,22.682,11.221,27.01s24.125,4.809,31.98,13.465c3.206,3.527,5.049,8.1,8.015,11.862a26.127,26.127,0,0,0,23.8,9.618c6.492-.882,14.106-3.927,18.755.641,5.13,5.049.962,13.625-2.565,19.877a86.74,86.74,0,0,0-10.5,32.541c-.321,2.885-.4,6.011,1.2,8.416,4.248,6.171,13.786,1.523,21.24,2.485,15.789,2,16.27,27.411,30.457,34.544,13.225,6.652,27.411-6.332,36.708-17.713,9.3-11.461,24.365-23.884,37.029-16.27,8.336,5.049,10.179,16.431,8.977,26.049-2.084,16.831-10.74,32.46-11.3,49.372s12.664,36.628,29.094,32.861c6.652-1.523,13.385-6.572,19.637-3.767,2.805,1.282,4.729,4.007,6.732,6.412,11.942,14.267,33.262,19.877,50.654,13.144,13.064-5.049,28.774-15.789,39.033-6.252,5.29,4.969,5.61,13.064,8.015,19.877a33.361,33.361,0,0,0,27.652,21.721c12.263,1.2,24.045-4.569,36.147-6.813,27.171-5.049,59.952,6.412,79.989-12.583,11.3-10.74,15.148-29.014,29.174-35.827,15.629-7.534,36.067,3.366,50.975-5.45,4.889-2.885,8.736-7.694,13.3-10.74a7.961,7.961,0,0,0,2.485,2.965C804.766,590.2,817.59,595.811,813.583,606.23Z" transform="translate(72.031 114.735)" />
    <g id="Group_2150" data-name="Group 2150" transform="translate(294.272 499.152)">
      <path id="Path_2788" data-name="Path 2788" class="cls-7" d="M245.5,397.952a6.652,6.652,0,1,0-13.3,0,6.918,6.918,0,0,0,1.122,3.767l5.45,11.461.08.16.08-.16,5.45-11.461A6.535,6.535,0,0,0,245.5,397.952Z" transform="translate(-232.2 -391.3)" />
      <path id="Path_2789" data-name="Path 2789" class="cls-8" d="M239.289,393.5a4.889,4.889,0,1,0,4.889,4.889A4.962,4.962,0,0,0,239.289,393.5Zm0,9.217a4.328,4.328,0,1,1,4.328-4.328A4.31,4.31,0,0,1,239.289,402.717Z" transform="translate(-232.637 -391.737)" />
    </g>
    <g id="Group_2152" data-name="Group 2152" transform="translate(294.244 485.623)">
      <g id="Group_2151" data-name="Group 2151">
        <text id="БАЯН-ӨЛГИЙ" class="cls-9" transform="translate(0 7)"><tspan x="0" y="0">БАЯН-ӨЛГИЙ</tspan></text>
      </g>
    </g>
    <g id="Group_2154" data-name="Group 2154" transform="translate(380.06 478.18)">
      <path id="Path_2790" data-name="Path 2790" class="cls-7" d="M352.5,371.952a6.652,6.652,0,1,0-13.3,0,6.919,6.919,0,0,0,1.122,3.767l5.45,11.461.08.16.08-.16,5.45-11.461A6.535,6.535,0,0,0,352.5,371.952Z" transform="translate(-339.2 -365.3)" />
      <path id="Path_2791" data-name="Path 2791" class="cls-8" d="M346.289,367.5a4.889,4.889,0,1,0,4.889,4.889A4.962,4.962,0,0,0,346.289,367.5Zm0,9.217a4.328,4.328,0,1,1,4.328-4.328A4.31,4.31,0,0,1,346.289,376.717Z" transform="translate(-339.637 -365.737)" />
    </g>
    <g id="Group_2155" data-name="Group 2155" transform="translate(380.058 464.655)">
      <text id="УВС" class="cls-9" transform="translate(0 7)"><tspan x="0" y="0">УВС</tspan></text>
    </g>
    <g id="Group_2157" data-name="Group 2157" transform="translate(363.201 572.551)">
      <path id="Path_2792" data-name="Path 2792" class="cls-7" d="M331.5,488.952a6.652,6.652,0,1,0-13.3,0,6.918,6.918,0,0,0,1.122,3.767l5.45,11.461.08.16.08-.16,5.45-11.461A6.536,6.536,0,0,0,331.5,488.952Z" transform="translate(-318.2 -482.3)" />
      <path id="Path_2793" data-name="Path 2793" class="cls-8" d="M325.289,484.5a4.889,4.889,0,1,0,4.889,4.889A4.962,4.962,0,0,0,325.289,484.5Zm0,9.217a4.328,4.328,0,1,1,4.328-4.328A4.31,4.31,0,0,1,325.289,493.717Z" transform="translate(-318.637 -482.737)" />
    </g>
    <g id="Group_2159" data-name="Group 2159" transform="translate(363.054 559.009)">
      <g id="Group_2158" data-name="Group 2158">
        <text id="БАЯН-ӨЛГИЙ-2" data-name="БАЯН-ӨЛГИЙ" class="cls-9" transform="translate(0 7)"><tspan x="0" y="0">ХОВД</tspan></text>
      </g>
    </g>
    <g id="Group_2161" data-name="Group 2161" transform="translate(476.828 534.642)">
      <path id="Path_2794" data-name="Path 2794" class="cls-7" d="M473.5,441.952a6.652,6.652,0,1,0-13.3,0,6.918,6.918,0,0,0,1.122,3.767l5.45,11.461.08.16.08-.16,5.45-11.461A6.535,6.535,0,0,0,473.5,441.952Z" transform="translate(-460.2 -435.3)" />
      <path id="Path_2795" data-name="Path 2795" class="cls-8" d="M467.289,437.5a4.889,4.889,0,1,0,4.889,4.889A4.962,4.962,0,0,0,467.289,437.5Zm0,9.217a4.328,4.328,0,1,1,4.328-4.328A4.31,4.31,0,0,1,467.289,446.717Z" transform="translate(-460.637 -435.737)" />
    </g>
    <g id="Group_2163" data-name="Group 2163" transform="translate(476.794 521.106)">
      <g id="Group_2162" data-name="Group 2162">
        <text id="ЗАВХАН" class="cls-9" transform="translate(0 7)"><tspan x="0" y="0">ЗАВХАН</tspan></text>
      </g>
    </g>
    <g id="Group_2165" data-name="Group 2165" transform="translate(443.988 633.852)">
      <path id="Path_2796" data-name="Path 2796" class="cls-7" d="M432.5,564.952a6.652,6.652,0,1,0-13.3,0,6.918,6.918,0,0,0,1.122,3.767l5.45,11.461.08.16.08-.16,5.45-11.461A6.536,6.536,0,0,0,432.5,564.952Z" transform="translate(-419.2 -558.3)" />
      <path id="Path_2797" data-name="Path 2797" class="cls-8" d="M426.289,560.5a4.889,4.889,0,1,0,4.889,4.889A4.962,4.962,0,0,0,426.289,560.5Zm0,9.217a4.328,4.328,0,1,1,4.328-4.328A4.31,4.31,0,0,1,426.289,569.717Z" transform="translate(-419.637 -558.737)" />
    </g>
    <g id="Group_2167" data-name="Group 2167" transform="translate(443.95 620.3)">
      <g id="Group_2166" data-name="Group 2166">
        <text id="ГОВЬ-АЛТАЙ" class="cls-9" transform="translate(0 7)"><tspan x="0" y="0">ГОВЬ-АЛТАЙ</tspan></text>
      </g>
    </g>
    <g id="Group_2169" data-name="Group 2169" transform="translate(548.916 645.951)">
      <path id="Path_2798" data-name="Path 2798" class="cls-7" d="M563.5,579.952a6.652,6.652,0,1,0-13.3,0,6.917,6.917,0,0,0,1.122,3.767l5.45,11.461.08.16.08-.16,5.45-11.461A6.536,6.536,0,0,0,563.5,579.952Z" transform="translate(-550.2 -573.3)" />
      <path id="Path_2799" data-name="Path 2799" class="cls-8" d="M557.289,575.5a4.889,4.889,0,1,0,4.889,4.889A4.961,4.961,0,0,0,557.289,575.5Zm0,9.217a4.328,4.328,0,1,1,4.328-4.328A4.31,4.31,0,0,1,557.289,584.717Z" transform="translate(-550.637 -573.737)" />
    </g>
    <g id="Group_2171" data-name="Group 2171" transform="translate(548.874 632.396)">
      <g id="Group_2170" data-name="Group 2170">
        <text id="БАЯНХОНГОР" class="cls-9" transform="translate(0 7)"><tspan x="0" y="0">БАЯНХОНГОР</tspan></text>
      </g>
    </g>
    <g id="Group_2173" data-name="Group 2173" transform="translate(590.567 569.325)">
      <path id="Path_2800" data-name="Path 2800" class="cls-7" d="M615.5,484.952a6.652,6.652,0,0,0-13.3,0,6.92,6.92,0,0,0,1.122,3.767l5.45,11.461.08.16.08-.16,5.45-11.461A6.536,6.536,0,0,0,615.5,484.952Z" transform="translate(-602.2 -478.3)" />
      <path id="Path_2801" data-name="Path 2801" class="cls-8" d="M609.289,480.5a4.889,4.889,0,1,0,4.889,4.889A4.962,4.962,0,0,0,609.289,480.5Zm0,9.217a4.328,4.328,0,1,1,4.328-4.328A4.31,4.31,0,0,1,609.289,489.717Z" transform="translate(-602.637 -478.737)" />
    </g>
    <g id="Group_2175" data-name="Group 2175" transform="translate(590.527 555.784)">
      <g id="Group_2174" data-name="Group 2174">
        <text id="АРХАНГАЙ" class="cls-9" transform="translate(0 7)"><tspan x="0" y="0">АРХАНГАЙ</tspan></text>
      </g>
    </g>
    <g id="Group_2177" data-name="Group 2177" transform="translate(566.537 474.954)">
      <path id="Path_2802" data-name="Path 2802" class="cls-7" d="M585.5,367.952a6.652,6.652,0,1,0-13.3,0,6.918,6.918,0,0,0,1.122,3.767l5.45,11.461.08.16.08-.16,5.45-11.461A6.535,6.535,0,0,0,585.5,367.952Z" transform="translate(-572.2 -361.3)" />
      <path id="Path_2803" data-name="Path 2803" class="cls-8" d="M579.289,363.5a4.889,4.889,0,1,0,4.889,4.889A4.962,4.962,0,0,0,579.289,363.5Zm0,9.217a4.328,4.328,0,1,1,4.328-4.328A4.31,4.31,0,0,1,579.289,372.717Z" transform="translate(-572.637 -361.737)" />
    </g>
    <g id="Group_2179" data-name="Group 2179" transform="translate(566.5 461.429)">
      <g id="Group_2178" data-name="Group 2178">
        <text id="ХӨВСГӨЛ" class="cls-9" transform="translate(0 7)"><tspan x="0" y="0">ХӨВСГӨЛ</tspan></text>
      </g>
    </g>
    <path id="Path_2804" data-name="Path 2804" class="cls-7" d="M668.34,412.952a6.652,6.652,0,0,0-13.3,0,6.917,6.917,0,0,0,1.122,3.767l5.45,11.461.08.16.08-.16,5.45-11.461A6.535,6.535,0,0,0,668.34,412.952Z" transform="translate(-25.138 104.951)" />
    <path id="Path_2805" data-name="Path 2805" class="cls-10" d="M662.124,408.5a4.889,4.889,0,1,0,4.889,4.889A4.962,4.962,0,0,0,662.124,408.5Zm0,9.217a4.328,4.328,0,1,1,4.328-4.328A4.31,4.31,0,0,1,662.124,417.717Z" transform="translate(-25.575 104.502)" />
    <g id="Group_2182" data-name="Group 2182" transform="translate(629.862 497.719)">
      <text id="БУЛГАН" class="cls-9" transform="translate(0 7)"><tspan x="0" y="0">БУЛГАН</tspan></text>
    </g>
    <g id="Group_2184" data-name="Group 2184" transform="translate(676.447 503.185)">
      <path id="Path_2806" data-name="Path 2806" class="cls-7" d="M716.5,402.952a6.652,6.652,0,0,0-13.3,0,6.918,6.918,0,0,0,1.122,3.767l5.45,11.461.08.16.08-.16,5.45-11.461A6.537,6.537,0,0,0,716.5,402.952Z" transform="translate(-703.2 -396.3)" />
      <path id="Path_2807" data-name="Path 2807" class="cls-8" d="M710.289,398.5a4.889,4.889,0,1,0,4.889,4.889A4.962,4.962,0,0,0,710.289,398.5Zm0,9.217a4.328,4.328,0,1,1,4.328-4.328A4.31,4.31,0,0,1,710.289,407.717Z" transform="translate(-703.637 -396.737)" />
    </g>
    <g id="Group_2185" data-name="Group 2185" transform="translate(676.412 489.655)">
      <text id="ОРХОН" class="cls-9" transform="translate(0 7)"><tspan x="0" y="0">ОРХОН</tspan></text>
    </g>
    <g id="Group_2187" data-name="Group 2187" transform="translate(629.013 630.626)">
      <path id="Path_2808" data-name="Path 2808" class="cls-7" d="M663.5,560.952a6.652,6.652,0,0,0-13.3,0,6.919,6.919,0,0,0,1.122,3.767l5.45,11.461.08.16.08-.16,5.45-11.461A6.536,6.536,0,0,0,663.5,560.952Z" transform="translate(-650.2 -554.3)" />
      <path id="Path_2809" data-name="Path 2809" class="cls-8" d="M657.289,556.5a4.889,4.889,0,1,0,4.889,4.889A4.962,4.962,0,0,0,657.289,556.5Zm0,9.217a4.328,4.328,0,1,1,4.328-4.328A4.31,4.31,0,0,1,657.289,565.717Z" transform="translate(-650.637 -554.737)" />
    </g>
    <g id="Group_2242" data-name="Group 2242" transform="translate(726.655 643.669)">
      <path id="Path_2808-2" data-name="Path 2808" class="cls-7" d="M663.5,560.952a6.652,6.652,0,0,0-13.3,0,6.919,6.919,0,0,0,1.122,3.767l5.45,11.461.08.16.08-.16,5.45-11.461A6.536,6.536,0,0,0,663.5,560.952Z" transform="translate(-650.2 -554.3)" />
      <path id="Path_2809-2" data-name="Path 2809" class="cls-8" d="M657.289,556.5a4.889,4.889,0,1,0,4.889,4.889A4.962,4.962,0,0,0,657.289,556.5Zm0,9.217a4.328,4.328,0,1,1,4.328-4.328A4.31,4.31,0,0,1,657.289,565.717Z" transform="translate(-650.637 -554.737)" />
    </g>
    <g id="Group_2189" data-name="Group 2189" transform="translate(628.969 617.074)">
      <g id="Group_2188" data-name="Group 2188">
        <text id="ӨВӨРХАНГАЙ" class="cls-9" transform="translate(0 7)"><tspan x="0" y="0">ӨВӨРХАНГАЙ</tspan></text>
      </g>
    </g>
    <g id="Group_2191" data-name="Group 2191" transform="translate(735.544 508.418)">
      <path id="Path_2810" data-name="Path 2810" class="cls-7" d="M796.5,406.952a6.652,6.652,0,1,0-13.3,0,6.918,6.918,0,0,0,1.122,3.767l5.45,11.461.08.16.08-.16,5.45-11.461A6.537,6.537,0,0,0,796.5,406.952Z" transform="translate(-783.2 -400.3)" />
      <path id="Path_2811" data-name="Path 2811" class="cls-8" d="M790.289,402.5a4.889,4.889,0,1,0,4.889,4.889A4.962,4.962,0,0,0,790.289,402.5Zm0,9.217a4.328,4.328,0,1,1,4.328-4.328A4.31,4.31,0,0,1,790.289,411.717Z" transform="translate(-783.637 -400.737)" />
    </g>
    <g id="Group_2192" data-name="Group 2192" transform="translate(735.503 494.887)">
      <text id="СЭЛЭНГЭ" class="cls-9" transform="translate(0 7)"><tspan x="0" y="0">СЭЛЭНГЭ</tspan></text>
    </g>
    <g id="Group_2194" data-name="Group 2194" transform="translate(716.496 488.489)">
      <path id="Path_2812" data-name="Path 2812" class="cls-7" d="M766.5,390.952a6.652,6.652,0,0,0-13.3,0,6.919,6.919,0,0,0,1.122,3.767l5.45,11.461.08.16.08-.16,5.45-11.461A6.537,6.537,0,0,0,766.5,390.952Z" transform="translate(-753.2 -384.3)" />
      <path id="Path_2813" data-name="Path 2813" class="cls-8" d="M760.289,386.5a4.889,4.889,0,1,0,4.889,4.889A4.962,4.962,0,0,0,760.289,386.5Zm0,9.217a4.328,4.328,0,1,1,4.328-4.328A4.31,4.31,0,0,1,760.289,395.717Z" transform="translate(-753.637 -384.737)" />
    </g>
    <g id="Group_2196" data-name="Group 2196" transform="translate(716.448 474.962)">
      <g id="Group_2195" data-name="Group 2195">
        <text id="ДАРХАН-УУЛ" class="cls-9" transform="translate(0 7)"><tspan x="0" y="0">ДАРХАН-УУЛ</tspan></text>
      </g>
    </g>
    <g id="Group_2198" data-name="Group 2198" transform="translate(902.948 595.136)">
      <path id="Path_2814" data-name="Path 2814" class="cls-7" d="M1005.5,516.953a6.652,6.652,0,1,0-13.3,0,6.918,6.918,0,0,0,1.122,3.767l5.45,11.461.08.16.08-.16,5.45-11.461A6.535,6.535,0,0,0,1005.5,516.953Z" transform="translate(-992.2 -510.3)" />
      <path id="Path_2815" data-name="Path 2815" class="cls-8" d="M999.289,512.5a4.889,4.889,0,1,0,4.889,4.889A4.961,4.961,0,0,0,999.289,512.5Zm0,9.217a4.328,4.328,0,1,1,4.328-4.328A4.31,4.31,0,0,1,999.289,521.717Z" transform="translate(-992.637 -510.737)" />
    </g>
    <g id="Group_2200" data-name="Group 2200" transform="translate(902.897 581.59)">
      <g id="Group_2199" data-name="Group 2199">
        <text id="СҮХБААТАР" class="cls-9" transform="translate(0 7)"><tspan x="0" y="0">СҮХБААТАР</tspan></text>
      </g>
    </g>
    <g id="Group_2202" data-name="Group 2202" transform="translate(928.579 515.284)">
      <path id="Path_2816" data-name="Path 2816" class="cls-7" d="M1037.5,417.952a6.652,6.652,0,1,0-13.3,0,6.918,6.918,0,0,0,1.122,3.767l5.45,11.461.08.16.08-.16,5.45-11.461A6.534,6.534,0,0,0,1037.5,417.952Z" transform="translate(-1024.2 -411.3)" />
      <path id="Path_2817" data-name="Path 2817" class="cls-8" d="M1031.289,413.5a4.889,4.889,0,1,0,4.889,4.889A4.962,4.962,0,0,0,1031.289,413.5Zm0,9.217a4.328,4.328,0,1,1,4.328-4.328A4.31,4.31,0,0,1,1031.289,422.717Z" transform="translate(-1024.637 -411.737)" />
    </g>
    <g id="Group_2203" data-name="Group 2203" transform="translate(928.536 501.752)">
      <text id="ДОРНОД" class="cls-9" transform="translate(0 7)"><tspan x="0" y="0">ДОРНОД</tspan></text>
    </g>
    <g id="Group_2205" data-name="Group 2205" transform="translate(710.713 564.485)">
      <path id="Path_2818" data-name="Path 2818" class="cls-7" d="M765.5,478.952a6.652,6.652,0,0,0-13.3,0,6.918,6.918,0,0,0,1.122,3.767l5.45,11.461.08.16.08-.16,5.45-11.461A6.535,6.535,0,0,0,765.5,478.952Z" transform="translate(-752.2 -472.3)" />
      <path id="Path_2819" data-name="Path 2819" class="cls-8" d="M759.289,474.5a4.889,4.889,0,1,0,4.889,4.889A4.962,4.962,0,0,0,759.289,474.5Zm0,9.217a4.328,4.328,0,1,1,4.328-4.328A4.31,4.31,0,0,1,759.289,483.717Z" transform="translate(-752.637 -472.737)" />
    </g>
    <g id="Group_2207" data-name="Group 2207" transform="translate(710.683 550.945)">
      <g id="Group_2206" data-name="Group 2206">
        <text id="ТӨВ" class="cls-9" transform="translate(0 7)"><tspan x="0" y="0">ТӨВ</tspan></text>
      </g>
    </g>
    <g id="Group_2209" data-name="Group 2209" transform="translate(740.349 552.387)">
      <path id="Path_2820" data-name="Path 2820" class="cls-7" d="M802.5,463.952a6.652,6.652,0,1,0-13.3,0,6.918,6.918,0,0,0,1.122,3.767l5.45,11.461.08.16.08-.16,5.45-11.461A6.535,6.535,0,0,0,802.5,463.952Z" transform="translate(-789.2 -457.3)" />
      <path id="Path_2821" data-name="Path 2821" class="cls-8" d="M796.289,459.5a4.889,4.889,0,1,0,4.889,4.889A4.962,4.962,0,0,0,796.289,459.5Zm0,9.217a4.328,4.328,0,1,1,4.328-4.328A4.31,4.31,0,0,1,796.289,468.717Z" transform="translate(-789.637 -457.737)" />
    </g>
    <g id="Group_2211" data-name="Group 2211" transform="translate(740.298 538.848)">
      <g id="Group_2210" data-name="Group 2210">
        <text id="УЛААНБААТАР" class="cls-9" transform="translate(0 7)"><tspan x="0" y="0">УЛААНБААТАР</tspan></text>
      </g>
    </g>
    <g id="Group_2217" data-name="Group 2217" transform="translate(668.488 735.946)">
      <path id="Path_2824" data-name="Path 2824" class="cls-7" d="M713.5,691.952a6.652,6.652,0,0,0-13.3,0,6.919,6.919,0,0,0,1.122,3.767l5.45,11.461.08.16.08-.16,5.45-11.461A6.535,6.535,0,0,0,713.5,691.952Z" transform="translate(-700.2 -685.3)" />
      <path id="Path_2825" data-name="Path 2825" class="cls-7" d="M707.289,687.5a4.889,4.889,0,1,0,4.889,4.889A4.962,4.962,0,0,0,707.289,687.5Zm0,9.217a4.328,4.328,0,1,1,4.328-4.328A4.31,4.31,0,0,1,707.289,696.717Z" transform="translate(-700.637 -685.737)" />
    </g>
    <g id="Group_2219" data-name="Group 2219" transform="translate(669.02 720.72)">
      <g id="Group_2218" data-name="Group 2218">
        <text id="ӨМНӨГОВЬ" class="cls-11" transform="translate(0 9)"><tspan x="0" y="0">ӨМНӨГОВЬ</tspan></text>
      </g>
    </g>
    <g id="Group_2241" data-name="Group 2241" transform="translate(668.488 735.946)">
      <path id="Path_2822" data-name="Path 2822" class="cls-7" d="M785.5,575.952a6.652,6.652,0,0,0-13.3,0,6.92,6.92,0,0,0,1.122,3.767l5.45,11.461.08.16.08-.16,5.45-11.461A6.536,6.536,0,0,0,785.5,575.952Z" transform="translate(-772.2 -569.3)" />
      <path id="Path_2823" data-name="Path 2823" class="cls-8" d="M779.289,571.5a4.889,4.889,0,1,0,4.889,4.889A4.962,4.962,0,0,0,779.289,571.5Zm0,9.217a4.328,4.328,0,1,1,4.328-4.328A4.31,4.31,0,0,1,779.289,580.717Z" transform="translate(-772.637 -569.737)" />
    </g>
    <g id="Group_2221" data-name="Group 2221" transform="translate(788.408 599.759)">
      <path id="Path_2826" data-name="Path 2826" class="cls-7" d="M862.5,518.952a6.652,6.652,0,0,0-13.3,0,6.918,6.918,0,0,0,1.122,3.767l5.45,11.461.08.16.08-.16,5.45-11.461A6.536,6.536,0,0,0,862.5,518.952Z" transform="translate(-849.2 -512.3)" />
      <path id="Path_2827" data-name="Path 2827" class="cls-8" d="M856.289,514.5a4.889,4.889,0,1,0,4.889,4.889A4.962,4.962,0,0,0,856.289,514.5Zm0,9.217a4.328,4.328,0,1,1,4.328-4.328A4.31,4.31,0,0,1,856.289,523.717Z" transform="translate(-849.637 -512.737)" />
    </g>
    <g id="Group_2223" data-name="Group 2223" transform="translate(788.358 586.212)">
      <g id="Group_2222" data-name="Group 2222">
        <text id="ГОВЬСҮМБЭР" class="cls-9" transform="translate(0 7)"><tspan x="0" y="0">ГОВЬСҮМБЭР</tspan></text>
      </g>
    </g>
    <g id="Group_2225" data-name="Group 2225" transform="translate(822.85 666.922)">
      <path id="Path_2828" data-name="Path 2828" class="cls-7" d="M905.5,605.952a6.652,6.652,0,0,0-13.3,0,6.919,6.919,0,0,0,1.122,3.767l5.45,11.461.08.16.08-.16,5.45-11.461A6.536,6.536,0,0,0,905.5,605.952Z" transform="translate(-892.2 -599.3)" />
      <path id="Path_2829" data-name="Path 2829" class="cls-8" d="M899.289,601.5a4.889,4.889,0,1,0,4.889,4.889A4.962,4.962,0,0,0,899.289,601.5Zm0,9.217a4.328,4.328,0,1,1,4.328-4.328A4.31,4.31,0,0,1,899.289,610.717Z" transform="translate(-892.637 -599.737)" />
    </g>
    <g id="Group_2227" data-name="Group 2227" transform="translate(822.801 653.364)">
      <g id="Group_2226" data-name="Group 2226">
        <text id="ДОРНОГОВЬ" class="cls-9" transform="translate(0 7)"><tspan x="0" y="0">ДОРНОГОВЬ</tspan></text>
      </g>
    </g>
    <g id="Group_2229" data-name="Group 2229" transform="translate(822.85 556.42)">
      <path id="Path_2830" data-name="Path 2830" class="cls-7" d="M905.5,468.952a6.652,6.652,0,1,0-13.3,0,6.919,6.919,0,0,0,1.122,3.767l5.45,11.461.08.16.08-.16,5.45-11.461A6.536,6.536,0,0,0,905.5,468.952Z" transform="translate(-892.2 -462.3)" />
      <path id="Path_2831" data-name="Path 2831" class="cls-8" d="M899.289,464.5a4.889,4.889,0,1,0,4.889,4.889A4.962,4.962,0,0,0,899.289,464.5Zm0,9.217a4.328,4.328,0,1,1,4.328-4.328A4.31,4.31,0,0,1,899.289,473.717Z" transform="translate(-892.637 -462.737)" />
    </g>
    <g id="Group_2230" data-name="Group 2230" transform="translate(822.81 542.88)">
      <text id="ХЭНТИЙ" class="cls-9" transform="translate(0 7)"><tspan x="0" y="0">ХЭНТИЙ</tspan></text>
    </g>
    <path id="Path_2832" data-name="Path 2832" class="cls-12" d="M1236.859,558.662c16.992-14.427,43.6-16.751,56.1-35.266,3.927-5.851,6.091-12.9,11.141-17.793,2.484-2.4,6.652-4.007,9.057-1.683a7.158,7.158,0,0,1,1.763,3.767,31.352,31.352,0,0,1-9.538,29.415c-10.339,9.217-25.808,10.66-36.548,19.4-6.011,4.809-10.179,11.542-15.309,17.312s-12.1,10.82-19.717,10.419a3.081,3.081,0,0,1-1.683-.4,3.878,3.878,0,0,1-1.363-2.645c-1.282-5.931-2-13.385,3.046-16.751" transform="translate(-136.592 86.487)" />
    <path id="Path_2833" data-name="Path 2833" class="cls-12" d="M1198.78,593.362c-.16-1.042-1.763-.962-2.805-.481a26.85,26.85,0,0,0-13.786,15.228,4.675,4.675,0,0,0-.24,3.286c.721,1.523,2.645,1.843,4.328,2,4.168.4,9.057.561,11.942-2.565,2-2.164,2.484-5.45,4.809-7.294s5.931-1.763,7.614-4.168c1.843-2.645-.241-6.652-3.206-7.855-2.966-1.282-6.412-.641-9.618.08" transform="translate(-127.046 69.273)" />
    <path id="Path_2834" data-name="Path 2834" class="cls-12" d="M111.551,319.456c8.015-6.572,19.156-11.862,29.174-14.587,10.019-2.805,20.438-3.446,30.617-5.53a208.35,208.35,0,0,0,24.766-7.294c6.492-2.244,13.145-4.568,18.675-8.576,5.53-4.088,10.019-10.179,10.339-17.072a4.064,4.064,0,0,0-3.206-4.809c-5.771-2-12.263-.24-17.553,2.805s-9.858,7.213-15.068,10.419c-11.7,7.213-25.888,8.9-39.353,11.782a173.8,173.8,0,0,0-36.147,11.942c-3.687,1.683-7.374,3.607-9.939,6.652-2.645,3.046-3.927,7.534-2.244,11.221C103.215,320.178,108.425,322.021,111.551,319.456Z" transform="translate(88.145 132.954)" />
    <path id="Path_2835" data-name="Path 2835" class="cls-12" d="M274.562,258.209c-1.923,1.843-4.007,4.088-3.767,6.813.24,3.927,5.13,5.851,8.977,5.37,6.011-.721,11.061-4.809,15.709-8.736a5.138,5.138,0,0,0,1.683-2c1.2-2.805-2.565-5.13-5.53-5.691C286.905,252.919,275.364,257.408,274.562,258.209Z" transform="translate(54.415 134.329)" />
    <path id="Path_2836" data-name="Path 2836" class="cls-12" d="M282.663,234.722c-1.523,1.443-3.126,3.206-2.966,5.29.24,3.046,4.008,4.569,7.053,4.168,4.729-.561,8.656-3.767,12.343-6.893a4.918,4.918,0,0,0,1.363-1.523c.882-2.244-2-4.007-4.328-4.488C292.441,230.555,283.3,234.081,282.663,234.722Z" transform="translate(52.646 138.821)" />
    <path id="Path_2837" data-name="Path 2837" class="cls-12" d="M129.663,597.723c-1.523,1.443-3.126,3.206-2.966,5.29.24,3.046,4.007,4.569,7.053,4.168,4.729-.561,8.656-3.767,12.343-6.893a4.919,4.919,0,0,0,1.363-1.523c.882-2.244-2-4.008-4.328-4.489C139.441,593.555,130.3,597.081,129.663,597.723Z" transform="translate(83.017 68.578)" />
    <path id="Path_2838" data-name="Path 2838" class="cls-12" d="M792.663,837.722c-1.523,1.443-3.126,3.206-2.966,5.29.24,3.046,4.008,4.568,7.053,4.168,4.729-.561,8.656-3.767,12.343-6.893a4.92,4.92,0,0,0,1.363-1.523c.882-2.244-2-4.008-4.328-4.488C802.441,833.555,793.3,837.081,792.663,837.722Z" transform="translate(-48.95 22.141)" />
    <g id="Group_2243" data-name="Group 2243" transform="translate(726.612 630.115)">
      <text id="ДУНДГОВЬ" class="cls-9" transform="translate(0 7)"><tspan x="0" y="0">ДУНДГОВЬ</tspan></text>
    </g>
  </g>
</svg>